<svg xmlns="http://www.w3.org/2000/svg" data-name="Layer 3" viewBox="0 0 64 64" id="mobile-check"><path d="M31,1H15a5.006,5.006,0,0,0-5,5V42a5.006,5.006,0,0,0,5,5H29v3a11.5,11.5,0,0,0,2.91,7.653l5.343,6.011,1.494-1.328L33.4,56.325A9.515,9.515,0,0,1,31,50V44a1,1,0,0,0-.4-.8l-5.912-4.434A4.239,4.239,0,0,1,23,35.391a1.391,1.391,0,0,1,2.057-1.221l10.308,5.623,6.882,7.865,1.506-1.316-7-8a1.021,1.021,0,0,0-.274-.22L36,37.861V25.414l5.293,5.293a16.075,16.075,0,0,1,4.517,9.034l2.2,15.4a1.012,1.012,0,0,0,.095.3l4,8,1.79-.894L49.967,54.7,47.79,39.458a18.084,18.084,0,0,0-5.083-10.165L36,22.586V6A5.006,5.006,0,0,0,31,1ZM15,3H31a3,3,0,0,1,3,3V9H12V6A3,3,0,0,1,15,3ZM12,42V41h8.78a2.954,2.954,0,0,0,0,4H15A3,3,0,0,1,12,42Zm11,2a1,1,0,1,1,1-1A1,1,0,0,1,23,44Zm6,1H25.22a2.879,2.879,0,0,0,.641-2.855L29,44.5ZM26.014,32.414A3.39,3.39,0,0,0,21,35.391,6.228,6.228,0,0,0,22.17,39H12V11H34V36.77Z"></path><rect width="8" height="2" x="19" y="5"></rect><path d="M31.707,19.293l-3-3a1,1,0,0,0-1.414,0L21,22.586l-2.293-2.293a1,1,0,0,0-1.414,0l-3,3a1,1,0,0,0,0,1.414l6,6a1,1,0,0,0,1.414,0l10-10A1,1,0,0,0,31.707,19.293ZM21,28.586,16.414,24,18,22.414l2.293,2.293a1,1,0,0,0,1.414,0L28,18.414,29.586,20Z"></path></svg>