<svg xmlns="http://www.w3.org/2000/svg" enable-background="new 0 0 512 512" viewBox="0 0 512 512" id="table-reservation"><path d="M372,0H140c-15.439,0-28,12.561-28,28v456c0,15.439,12.561,28,28,28h232c15.439,0,28-12.561,28-28V28
		C400,12.561,387.439,0,372,0z M328,16v12c0,6.617-5.383,12-12,12H196c-6.617,0-12-5.383-12-12V16H328z M384,484
		c0,6.617-5.383,12-12,12H140c-6.617,0-12-5.383-12-12V28c0-6.617,5.383-12,12-12h28v12c0,15.439,12.561,28,28,28h120
		c15.439,0,28-12.561,28-28V16h28c6.617,0,12,5.383,12,12V484z"></path><path d="M256 432c-13.234 0-24 10.766-24 24s10.766 24 24 24 24-10.766 24-24S269.234 432 256 432zM256 464c-4.411 0-8-3.589-8-8s3.589-8 8-8 8 3.589 8 8S260.411 464 256 464zM344 360c4.418 0 8-3.582 8-8s-3.582-8-8-8h-16v-89.013c13.786-3.561 24-16.104 24-30.987v-48c0-4.418-3.582-8-8-8h-48c-4.418 0-8 3.582-8 8v48c0 14.884 10.214 27.426 24 30.987v51.806c-11.629-14.378-28.674-24.201-48-26.347V256c0-4.418-3.582-8-8-8s-8 3.582-8 8v24.455c-22.946 2.549-42.665 15.92-53.933 34.884-.317.441-.591.913-.814 1.414-4.637 8.223-7.708 17.438-8.797 27.246H168c-4.418 0-8 3.582-8 8s3.582 8 8 8H344zM304 224v-40h32v40c0 8.822-7.178 16-16 16S304 232.822 304 224zM205.414 328H248c4.418 0 8-3.582 8-8s-3.582-8-8-8h-31.138c10.104-9.888 23.918-16 39.138-16 28.162 0 51.525 20.899 55.419 48H200.581C201.392 338.353 203.044 332.975 205.414 328zM160 144h48c4.418 0 8-3.582 8-8V88c0-4.418-3.582-8-8-8h-48c-4.418 0-8 3.582-8 8v48C152 140.418 155.582 144 160 144zM168 96h32v32h-32V96zM248 144h48c4.418 0 8-3.582 8-8V88c0-4.418-3.582-8-8-8h-48c-4.418 0-8 3.582-8 8v48C240 140.418 243.582 144 248 144zM256 96h32v32h-32V96zM208 232c4.418 0 8-3.582 8-8v-48c0-4.418-3.582-8-8-8h-48c-4.418 0-8 3.582-8 8v48c0 4.418 3.582 8 8 8H208zM168 184h32v32h-32V184zM338.343 386.343L320 404.687l-18.343-18.343c-3.124-3.124-8.189-3.124-11.313 0-3.125 3.124-3.125 8.189 0 11.313l24 24c3.124 3.124 8.189 3.124 11.313 0l24-24c3.125-3.124 3.125-8.189 0-11.313C346.533 383.219 341.467 383.219 338.343 386.343z"></path></svg>